<svg xmlns="http://www.w3.org/2000/svg" viewBox="0 0 64 64">
  <circle cx="32" cy="34" r="26" fill="#7BB8E0"/>
  <circle cx="32" cy="34" r="26" fill="url(#g)"/>
  <defs><radialGradient id="g" cx="40%" cy="35%"><stop offset="0%" stop-color="#A8D8F0"/><stop offset="100%" stop-color="#4A90B8"/></radialGradient></defs>
  <path d="M12 28c10-8 30-8 40 0" stroke="#fff" stroke-width="2" fill="none" opacity="0.5"/>
  <path d="M10 36c12-6 32-6 44 0" stroke="#fff" stroke-width="2" fill="none" opacity="0.4"/>
  <path d="M14 44c8-5 28-5 36 0" stroke="#fff" stroke-width="2" fill="none" opacity="0.3"/>
  <path d="M32 8c-4 12-4 40 0 52" stroke="#fff" stroke-width="1.5" fill="none" opacity="0.3"/>
  <path d="M20 12c0 14 2 36 4 48" stroke="#fff" stroke-width="1.5" fill="none" opacity="0.25"/>
  <path d="M44 12c0 14-2 36-4 48" stroke="#fff" stroke-width="1.5" fill="none" opacity="0.25"/>
  <path d="M50 20c-6 4-10 2-14-2s-6-2-10 4-2 8 4 10 10 1 14-4" stroke="#4A90B8" stroke-width="2.5" fill="none" stroke-linecap="round"/>
</svg>